<svg id="Layer_1" data-name="Layer 1" xmlns="http://www.w3.org/2000/svg" viewBox="0 0 176 63.31"><defs><style>.cls-1{fill:#231f20;}.cls-2{fill:#003369;}</style></defs><title>text</title><path class="cls-1" d="M24.64,9.82A17,17,0,0,0,12.69,5H7.43A.41.41,0,0,0,7,5.43v.43h5.69a15.68,15.68,0,0,1,16,15.77,15.93,15.93,0,0,1-16,15.91H7V49.86a.42.42,0,0,0,.43.43.47.47,0,0,0,.44-.43V38.41h4.82A16.81,16.81,0,0,0,29.54,21.63,16.31,16.31,0,0,0,24.64,9.82Z"/><path class="cls-1" d="M45.16,6a11.28,11.28,0,0,0-11.3,11.3V49.86a.43.43,0,1,0,.86,0V39.42H55.53V49.86a.49.49,0,0,0,.51.43.47.47,0,0,0,.43-.43V17.31A11.33,11.33,0,0,0,45.16,6ZM55.53,38.55H34.72V17.31a10.41,10.41,0,1,1,20.81,0Z"/><path class="cls-1" d="M73.82,27.68A10.41,10.41,0,1,1,84.26,17.31a.41.41,0,0,0,.43.43.45.45,0,0,0,.43-.43,11.27,11.27,0,1,0-11.3,11.23A10.44,10.44,0,1,1,63.38,39a.42.42,0,0,0-.44-.43.41.41,0,0,0-.36.43,11.27,11.27,0,1,0,11.24-11.3Z"/><path class="cls-1" d="M101.83,27.68a10.41,10.41,0,1,1,10.44-10.37.41.41,0,0,0,.43.43.46.46,0,0,0,.43-.43,11.27,11.27,0,1,0-11.3,11.23A10.44,10.44,0,1,1,91.38,39a.41.41,0,0,0-.43-.43.41.41,0,0,0-.36.43,11.27,11.27,0,1,0,11.24-11.3Z"/><path class="cls-2" d="M119,6a.38.38,0,0,0-.43.43v.43h.86a21.28,21.28,0,0,1,0,42.55h-.86v.44a.41.41,0,0,0,.43.43A22.14,22.14,0,0,0,119,6Z"/><path class="cls-2" d="M157.7,6a11.26,11.26,0,0,0-11.24,11.3V39A11.27,11.27,0,1,0,169,39V17.31A11.28,11.28,0,0,0,157.7,6Zm10.44,33a10.44,10.44,0,1,1-20.88,0V17.31a10.44,10.44,0,0,1,20.88,0Z"/><rect class="cls-2" x="7" y="57.31" width="162" height="1" rx="0.5"/><path class="cls-2" d="M73,38.08V32.49a1.23,1.23,0,0,1,.24-.86.76.76,0,0,1,.6-.25.74.74,0,0,1,.58.25,1.23,1.23,0,0,1,.24.86v5.59L80,36.35a2.06,2.06,0,0,1,.57-.12.73.73,0,0,1,.54.24.82.82,0,0,1,.24.58.85.85,0,0,1-.17.51,1.4,1.4,0,0,1-.67.37l-5.32,1.73,3.29,4.52a1.4,1.4,0,0,1,.31.71.82.82,0,0,1-.82.83,1.08,1.08,0,0,1-.83-.56l-3.3-4.54-3.29,4.54c-.28.38-.55.56-.82.56a.82.82,0,0,1-.84-.83,1.38,1.38,0,0,1,.33-.71l3.29-4.52-5.34-1.75a1.52,1.52,0,0,1-.65-.36.8.8,0,0,1-.17-.5.82.82,0,0,1,.24-.58.7.7,0,0,1,.52-.24,2,2,0,0,1,.59.12Z"/><path class="cls-2" d="M101,38.08V32.49a1.23,1.23,0,0,1,.24-.86.76.76,0,0,1,.6-.25.74.74,0,0,1,.58.25,1.23,1.23,0,0,1,.24.86v5.59L108,36.35a2.06,2.06,0,0,1,.57-.12.73.73,0,0,1,.54.24.82.82,0,0,1,.24.58.85.85,0,0,1-.17.51,1.4,1.4,0,0,1-.67.37l-5.32,1.73,3.29,4.52a1.4,1.4,0,0,1,.31.71.82.82,0,0,1-.82.83,1.08,1.08,0,0,1-.83-.56l-3.3-4.54-3.29,4.54c-.28.38-.55.56-.82.56a.82.82,0,0,1-.84-.83,1.38,1.38,0,0,1,.33-.71l3.29-4.52-5.34-1.75a1.52,1.52,0,0,1-.65-.36.8.8,0,0,1-.17-.5.82.82,0,0,1,.24-.58.7.7,0,0,1,.52-.24,2,2,0,0,1,.59.12Z"/></svg>